#!OML:ASF H:\Pregnant\Project 1\Capture day 1\Session 1\femalepreg.ASF
:FULLY-SPECIFIED
:DEGREES
524
root -1.6478 16.0733 -17.2807 -159.736 42.5479 -186.776
lowerback -20.1917 -1.49368 -10.6524
upperback -3.67913 0.900547 -1.1109
thorax 7.15851 0.427829 5.11101
lowerneck -17.3967 -7.51812 -4.83204
upperneck 35.8356 -12.4072 13.498
head 17.4783 -3.02534 4.74193
rclavicle 1.00386e-013 6.04305e-014
rhumerus -24.019 21.1859 -92.459
rradius 34.6479
rwrist -4.63448
rhand -8.33835 -14.4899
rfingers 7.12502
rthumb 17.5833 -43.7148
lclavicle 1.00386e-013 6.04305e-014
lhumerus -24.6895 -22.5907 84.6201
lradius 36.5364
lwrist 38.8607
lhand -29.0341 -4.6057
lfingers 7.12502
lthumb -2.38465 25.3607
rfemur -58.8449 4.97258 13.5415
rtibia 34.2551
rfoot -16.6817 -33.0754
rtoes 7.77664
lfemur -13.4582 -8.42861 -24.2664
ltibia 3.18055e-015
lfoot -6.22063 10.2541
ltoes -18.856
525
root -1.55757 16.0627 -17.3474 -160.269 42.9162 -187.034
lowerback -20.3113 -1.3439 -10.4616
upperback -3.6308 1.07219 -1.14289
thorax 7.25244 0.505808 5.01443
lowerneck -17.2386 -7.62794 -5.0206
upperneck 35.8342 -12.506 13.4902
head 17.4667 -3.09866 4.75348
rclavicle 1.31943e-014 -2.22639e-014
rhumerus -23.7108 21.8984 -92.7511
rradius 34.2293
rwrist -4.53893
rhand -8.33736 -14.5522
rfingers 7.12502
rthumb 17.5842 -43.7771
lclavicle 1.31943e-014 -2.22639e-014
lhumerus -25.4564 -23.038 85.0067
lradius 36.3358
lwrist 38.5543
lhand -28.6492 -4.54079
lfingers 7.12502
lthumb -2.01289 25.4295
rfemur -58.3676 4.70801 13.8645
rtibia 34.5475
rfoot -15.053 -32.1651
rtoes 9.56628
lfemur -12.5501 -8.44284 -24.5355
ltibia 4.77083e-014
lfoot -6.49684 10.7003
ltoes -19.3768
526
root -1.46868 16.0564 -17.4098 -160.712 43.252 -187.306
lowerback -20.47 -1.21964 -10.2586
upperback -3.61006 1.21543 -1.18379
thorax 7.34319 0.573714 4.89502
lowerneck -17.0947 -7.72653 -5.17084
upperneck 35.8197 -12.5982 13.4702
head 17.4459 -3.16642 4.75199
rclavicle 2.49599e-014 -2.39536e-014
rhumerus -23.4117 22.6312 -93.062
rradius 33.8366
rwrist -4.47974
rhand -8.48005 -14.633
rfingers 7.12502
rthumb 17.4469 -43.8701
lclavicle 2.49599e-014 -2.39536e-014
lhumerus -26.2017 -23.3896 85.3672
lradius 36.0887
lwrist 38.2104
lhand -28.2717 -4.48987
lfingers 7.12502
lthumb -1.64832 25.4835
rfemur -58.0838 4.57546 14.0269
rtibia 34.8742
rfoot -13.107 -31.3187
rtoes 11.8731
lfemur -11.7809 -8.49154 -24.7776
ltibia 2.38542e-014
lfoot -6.70343 11.1222
ltoes -19.9641
527
root -1.38275 16.0533 -17.4653 -161.031 43.5427 -187.577
lowerback -20.6457 -1.12646 -10.0466
upperback -3.63328 1.32007 -1.22794
thorax 7.40191 0.629007 4.75752
lowerneck -16.9659 -7.81198 -5.27971
upperneck 35.7941 -12.682 13.4394
head 17.4167 -3.22694 4.73824
rclavicle -2.78423e-014 2.80286e-014
rhumerus -23.1211 23.3908 -93.3892
rradius 33.4695
rwrist -4.45872
rhand -8.7549 -14.7538
rfingers 7.12502
rthumb 17.1824 -44.0141
lclavicle -2.78423e-014 2.80286e-014
lhumerus -26.9287 -23.6561 85.7076
lradius 35.7992
lwrist 37.8716
lhand -27.9397 -4.46657
lfingers 7.12502
lthumb -1.32767 25.509
rfemur -58.0016 4.53172 14.0945
rtibia 35.2131
rfoot -11.0111 -30.5645
rtoes 14.3914
lfemur -11.1951 -8.58476 -24.9689
ltibia -2.06736e-014
lfoot -6.81996 11.5142
ltoes -20.5933
528
root -1.298 16.0511 -17.5198 -161.311 43.8669 -187.771
lowerback -20.7877 -1.00981 -9.75328
upperback -3.65412 1.43043 -1.2706
thorax 7.44712 0.688666 4.57666
lowerneck -16.867 -7.88188 -5.32176
upperneck 35.7727 -12.7546 13.373
head 17.3852 -3.27755 4.69745
rclavicle 6.4195e-014 4.79568e-014
rhumerus -22.8451 24.1765 -93.7334
rradius 33.1298
rwrist -4.45997
rhand -9.1211 -14.9007
rfingers 7.12502
rthumb 16.8299 -44.1913
lclavicle 6.4195e-014 4.79568e-014
lhumerus -27.6426 -23.8125 86.0263
lradius 35.4574
lwrist 37.5183
lhand -27.6789 -4.47681
lfingers 7.12502
lthumb -1.0758 25.5002
rfemur -57.927 4.55508 14.2208
rtibia 35.5558
rfoot -8.98919 -29.7953
rtoes 16.7466
lfemur -10.5989 -8.62411 -25.1144
ltibia 3.18055e-015
lfoot -6.90543 11.8865
ltoes -21.3063
529
root -1.21511 16.0477 -17.5728 -161.539 44.2309 -187.863
lowerback -20.8837 -0.84962 -9.35572
upperback -3.66578 1.56629 -1.3189
thorax 7.4785 0.762178 4.3365
lowerneck -16.7892 -7.94531 -5.30992
upperneck 35.7316 -12.835 13.3042
head 17.3446 -3.32475 4.64204
rclavicle -1.58779e-014 1.23246e-014
rhumerus -22.5659 24.9428 -94.0811
rradius 32.8095
rwrist -4.45288
rhand -9.56918 -15.0257
rfingers 7.12502
rthumb 16.3985 -44.3525
lclavicle -1.58779e-014 1.23246e-014
lhumerus -28.3174 -23.8787 86.3106
lradius 35.0611
lwrist 37.1605
lhand -27.4955 -4.4728
lfingers 7.12502
lthumb -0.898659 25.5051
rfemur -57.8222 4.59693 14.4871
rtibia 35.8904
rfoot -7.14722 -28.9848
rtoes 18.4425
lfemur -9.98535 -8.59747 -25.1983
ltibia 3.02153e-014
lfoot -6.95919 12.2383
ltoes -22.0935
530
root -1.13451 16.0431 -17.6242 -161.721 44.6424 -187.837
lowerback -20.908 -0.650693 -8.85371
upperback -3.67034 1.7169 -1.36183
thorax 7.48224 0.844694 4.04533
lowerneck -16.7206 -7.99842 -5.25049
upperneck 35.6692 -12.9181 13.2436
head 17.2919 -3.36632 4.57954
rclavicle -3.95473e-015 3.43028e-014
rhumerus -22.2922 25.7191 -94.4363
rradius 32.5202
rwrist -4.43625
rhand -10.0691 -15.1524
rfingers 7.12502
rthumb 15.9171 -44.5183
lclavicle -3.95473e-015 3.43028e-014
lhumerus -28.965 -23.8071 86.5542
lradius 34.6081
lwrist 36.7831
lhand -27.3804 -4.45056
lfingers 7.12502
lthumb -0.78748 25.5277
rfemur -57.6395 4.7163 14.8433
rtibia 36.2191
rfoot -5.88793 -28.2019
rtoes 19.9609
lfemur -9.33561 -8.49362 -25.2142
ltibia 7.95139e-015
lfoot -6.99282 12.5665
ltoes -22.8738
531
root -1.05661 16.0366 -17.6741 -161.839 45.094 -187.672
lowerback -20.8574 -0.412595 -8.23427
upperback -3.6645 1.8803 -1.39602
thorax 7.46193 0.935006 3.69861
lowerneck -16.6466 -8.05353 -5.17057
upperneck 35.5693 -13.0268 13.2347
head 17.2264 -3.41059 4.5298
rclavicle -4.24561e-014 -1.70706e-014
rhumerus -22.013 26.4811 -94.7893
rradius 32.2574
rwrist -4.37917
rhand -10.5954 -15.2697
rfingers 7.12502
rthumb 15.4103 -44.6753
lclavicle -4.24561e-014 -1.70706e-014
lhumerus -29.5748 -23.5937 86.748
lradius 34.0956
lwrist 36.3811
lhand -27.344 -4.40963
lfingers 7.12502
lthumb -0.752345 25.5688
rfemur -57.3769 4.88775 15.3209
rtibia 36.5335
rfoot -5.01647 -27.4911
rtoes 20.7857
lfemur -8.65097 -8.31592 -25.1459
ltibia 1.59028e-015
lfoot -7.01476 12.8638
ltoes -23.5349
532
root -0.981185 16.0284 -17.7235 -161.902 45.6001 -187.385
lowerback -20.7372 -0.149942 -7.52643
upperback -3.6513 2.04503 -1.40622
thorax 7.41776 1.02692 3.32609
lowerneck -16.5297 -8.10542 -5.12015
upperneck 35.4145 -13.1438 13.305
head 17.1348 -3.4567 4.51745
rclavicle -8.47133e-014 1.4064e-014
rhumerus -21.7474 27.2733 -95.1331
rradius 32.0288
rwrist -4.29558
rhand -11.1296 -15.3745
rfingers 7.12502
rthumb 14.8956 -44.8189
lclavicle -8.47133e-014 1.4064e-014
lhumerus -30.1666 -23.2003 86.9069
lradius 33.5223
lwrist 35.9411
lhand -27.3832 -4.37812
lfingers 7.12502
lthumb -0.790221 25.6002
rfemur -57.0438 5.11742 15.8772
rtibia 36.8359
rfoot -4.49108 -26.8139
rtoes 21.0375
lfemur -7.92093 -8.05726 -25.0156
ltibia -4.13472e-014
lfoot -7.02437 13.1397
ltoes -24.0765
533
root -0.908162 16.019 -17.7722 -161.904 46.158 -186.988
lowerback -20.5595 0.133431 -6.74648
upperback -3.63194 2.21405 -1.39496
thorax 7.35461 1.12163 2.93493
lowerneck -16.4015 -8.16015 -5.07503
upperneck 35.2277 -13.2766 13.4203
head 17.0326 -3.5067 4.52165
rclavicle -4.28567e-014 -1.41137e-014
rhumerus -21.4905 28.0784 -95.456
rradius 31.8357
rwrist -4.183
rhand -11.6559 -15.4519
rfingers 7.12502
rthumb 14.3886 -44.9332
lclavicle -4.28567e-014 -1.41137e-014
lhumerus -30.7388 -22.6401 87.0324
lradius 32.8894
lwrist 35.4674
lhand -27.5203 -4.42163
lfingers 7.12502
lthumb -0.922575 25.5561
rfemur -56.6677 5.40754 16.4798
rtibia 37.1166
rfoot -4.22757 -26.1607
rtoes 20.8716
lfemur -7.16539 -7.72504 -24.8293
ltibia -6.36111e-015
lfoot -7.0105 13.3879
ltoes -24.5104
534
root -0.83689 16.0093 -17.8204 -161.854 46.7646 -186.522
lowerback -20.3538 0.42342 -5.93289
upperback -3.6039 2.38304 -1.36504
thorax 7.29045 1.21588 2.54336
lowerneck -16.2827 -8.21766 -5.02191
upperneck 35.0226 -13.4209 13.5499
head 16.9267 -3.56021 4.52686
rclavicle 1.16687e-013 -2.34566e-014
rhumerus -21.1973 28.863 -95.7426
rradius 31.6139
rwrist -4.00833
rhand -12.1635 -15.4384
rfingers 7.12502
rthumb 13.8995 -44.9539
lclavicle 1.16687e-013 -2.34566e-014
lhumerus -31.2909 -21.9187 87.1244
lradius 32.2098
lwrist 34.989
lhand -27.772 -4.5294
lfingers 7.12502
lthumb -1.16575 25.4472
rfemur -56.2727 5.73704 17.0978
rtibia 37.3771
rfoot -4.11027 -25.5197
rtoes 20.3774
lfemur -6.40083 -7.33391 -24.6161
ltibia -2.54444e-014
lfoot -6.95381 13.6079
ltoes -24.9527
